<svg width="61" height="60" viewBox="0 0 61 60" fill="none" xmlns="http://www.w3.org/2000/svg"><rect x="2" y="1" width="59" height="59" rx="29.5" fill="#111"/><rect x="1" y="1" width="57" height="57" rx="28.5" fill="#FAFFFE" stroke="#111" stroke-width="2"/><path fill-rule="evenodd" clip-rule="evenodd" d="M14.111 16.387a2 2 0 00-2 2v22.221a2 2 0 002 2H44.89a2 2 0 002-2v-22.22a2 2 0 00-2-2H14.11zm14.972 15.841l-13.842-13.84h28.39l-13.84 13.84a.5.5 0 01-.708 0zm6.232-2.696l9.574-9.573v19.275l-9.574-9.702zm-1.414 1.415l-2.697 2.696a2.5 2.5 0 01-3.535 0l-2.695-2.695-9.533 9.66h27.993l-9.533-9.661zM14.11 20.085l9.448 9.447-9.448 9.575V20.086z" fill="#111"/></svg>