<svg width="61" height="60" viewBox="0 0 61 60" fill="none" xmlns="http://www.w3.org/2000/svg"><rect x="3.5" y="2.5" width="56" height="56" rx="28" stroke="#111" stroke-width="3"/><path d="M29.5 58C13.76 58 1 45.24 1 29.5S13.76 1 29.5 1 58 13.76 58 29.5 45.24 58 29.5 58z" fill="#FAFFFE" stroke="#111" stroke-width="2"/><path d="M15 31V17.5a1 1 0 011-1h10.746a1 1 0 01.961.725l1.586 5.55a1 1 0 00.961.725H43a1 1 0 011 1v16M15 31v10.5a1 1 0 001 1h27a1 1 0 001-1v-1M15 31h21.495a1 1 0 01.805.407L44 40.5" stroke="#111" stroke-width="2"/></svg>