<svg width="61" height="60" viewBox="0 0 61 60" fill="none" xmlns="http://www.w3.org/2000/svg"><rect x="2" y="1" width="59" height="59" rx="29.5" fill="#111"/><rect x="1" y="1" width="57" height="57" rx="28.5" fill="#FAFFFE" stroke="#111" stroke-width="2"/><g clip-path="url(#clip0_273_893)"><path d="M29.5 18.8424c3.4711 0 3.8823.0132 5.2531.0757 1.2675.0579 1.9558.2697 2.4139.4477.6068.2358 1.0399.5175 1.4948.9724.4549.4549.7366.888.9724 1.4948.178.4581.3898 1.1464.4477 2.4139.0625 1.3708.0757 1.782.0757 5.2531 0 3.4712-.0132 3.8823-.0757 5.2531-.0579 1.2675-.2697 1.9558-.4477 2.414-.2358.6067-.5175 1.0398-.9724 1.4947-.4549.4549-.888.7367-1.4948.9724-.4581.1781-1.1464.3899-2.4139.4477-1.3706.0626-1.7818.0758-5.2531.0758-3.4714 0-3.8825-.0132-5.2531-.0758-1.2675-.0578-1.9558-.2696-2.4139-.4477-.6068-.2357-1.0399-.5175-1.4948-.9724-.4549-.4549-.7367-.888-.9724-1.4947-.1781-.4582-.3899-1.1465-.4477-2.4139-.0626-1.3709-.0758-1.782-.0758-5.2532 0-3.4711.0132-3.8823.0758-5.2531.0578-1.2675.2696-1.9558.4477-2.4139.2357-.6068.5175-1.0399.9724-1.4948.4549-.4549.888-.7366 1.4948-.9724.4581-.178 1.1464-.3898 2.4138-.4477 1.3709-.0625 1.782-.0757 5.2532-.0757zm0-2.3424c-3.5306 0-3.9733.015-5.3599.0782-1.3837.0632-2.3287.2829-3.1556.6043-.8549.3322-1.5799.7767-2.3026 1.4995-.7227.7227-1.1672 1.4476-1.4994 2.3025-.3214.827-.5412 1.7719-.6043 3.1557-.0633 1.3865-.0782 1.8292-.0782 5.3598 0 3.5306.0149 3.9733.0782 5.3599.0631 1.3837.2829 2.3287.6043 3.1556.3322.8549.7767 1.5799 1.4994 2.3026.7227.7227 1.4477 1.1672 2.3026 1.4994.8269.3214 1.7719.5412 3.1556.6043 1.3866.0633 1.8293.0782 5.3599.0782 3.5306 0 3.9733-.0149 5.3598-.0782 1.3838-.0631 2.3287-.2829 3.1557-.6043.8549-.3322 1.5798-.7767 2.3025-1.4994.7228-.7227 1.1673-1.4477 1.4995-2.3026.3214-.8269.5411-1.7719.6043-3.1556.0632-1.3866.0782-1.8293.0782-5.3599 0-3.5306-.015-3.9733-.0782-5.3598-.0632-1.3838-.2829-2.3287-.6043-3.1557-.3322-.8549-.7767-1.5798-1.4995-2.3025-.7227-.7228-1.4476-1.1673-2.3025-1.4995-.827-.3214-1.7719-.5411-3.1557-.6043C33.4733 16.515 33.0306 16.5 29.5 16.5zm0 6.3243c-3.6869 0-6.6757 2.9889-6.6757 6.6757 0 3.6869 2.9888 6.6757 6.6757 6.6757 3.6868 0 6.6757-2.9888 6.6757-6.6757 0-3.6868-2.9889-6.6757-6.6757-6.6757zm0 11.0091c-2.3932 0-4.3334-1.9402-4.3334-4.3334s1.9402-4.3333 4.3334-4.3333 4.3333 1.9401 4.3333 4.3333-1.9401 4.3334-4.3333 4.3334zm8.4994-11.2728c0 .8616-.6984 1.56-1.56 1.56s-1.56-.6984-1.56-1.56.6984-1.56 1.56-1.56 1.56.6984 1.56 1.56z" fill="#0A0A08"/></g><defs><clipPath id="clip0_273_893"><path fill="#fff" transform="translate(16.5 16.5)" d="M0 0h26v26H0z"/></clipPath></defs></svg>