<svg width="61" height="60" viewBox="0 0 61 60" fill="none" xmlns="http://www.w3.org/2000/svg"><rect x="2" y="1" width="59" height="59" rx="29.5" fill="#111"/><rect x="1" y="1" width="57" height="57" rx="28.5" fill="#FAFFFE" stroke="#111" stroke-width="2"/><path d="M27.657 26.562c-.442 1.157-.876 2.182-1.228 3.235-1.125 3.365-2.29 6.719-3.299 10.119-.583 1.966.24 3.295 1.97 3.537.63.088 1.31.085 1.928-.056 3.802-.865 5.492-3.944 7.227-6.96-.373.271-.671.617-.987.947-.974 1.015-2.057 1.883-3.408 2.344-.22.075-.548.04-.736-.082-.1-.065-.046-.437.01-.653.074-.286.219-.553.332-.829 1.48-3.581 2.977-7.156 4.418-10.753.25-.623.414-1.358.348-2.014-.12-1.198-1.381-2.045-2.926-2.012-4.01.085-6.902 2.074-8.96 5.412-.075.123-.075.293-.145.583 1.713-1.263 3.128-2.793 5.456-2.818zM36.49 18.777a3.777 3.777 0 11-7.555 0 3.777 3.777 0 017.555 0" fill="#111"/></svg>