<svg width="61" height="60" viewBox="0 0 61 60" fill="none" xmlns="http://www.w3.org/2000/svg"><rect x="2" y="1" width="59" height="59" rx="29.5" fill="#111"/><rect x="1" y="1" width="57" height="57" rx="28.5" fill="#FAFFFE" stroke="#111" stroke-width="2"/><g clip-path="url(#clip0_273_900)"><path d="M17.5 19.6717c0-.7744.2703-1.4133.8108-1.9167.5405-.5033 1.2433-.755 2.1081-.755.8494 0 1.5367.2478 2.0618.7434.5405.5111.8108 1.1771.8108 1.998 0 .7434-.2625 1.363-.7876 1.8586-.5406.5111-1.251.7667-2.1313.7667h-.0232c-.8494 0-1.5367-.2556-2.0618-.7667-.5251-.5111-.7876-1.1539-.7876-1.9283zM17.8012 40V24.4808h5.1428V40h-5.1428zm7.9922 0h5.1429v-8.6657c0-.5421.0618-.9603.1853-1.2545.2162-.5266.5444-.9719.9846-1.3359.4401-.364.9922-.5459 1.6563-.5459 1.7298 0 2.5946 1.1693 2.5946 3.508V40H41.5v-8.898c0-2.2923-.5405-4.0308-1.6216-5.2157-1.0811-1.1848-2.5097-1.7772-4.2857-1.7772-1.9923 0-3.5444.8596-4.6564 2.5788v.0464h-.0232l.0232-.0464v-2.2071h-5.1429c.0309.4956.0464 2.0367.0464 4.6232 0 2.5865-.0155 6.2185-.0464 10.896z" fill="#000"/></g><defs><clipPath id="clip0_273_900"><path fill="#fff" transform="translate(17.5 17)" d="M0 0h24v23H0z"/></clipPath></defs></svg>
