<svg width="190" height="60" viewBox="0 0 190 60" fill="none" xmlns="http://www.w3.org/2000/svg"><rect x="2" y="1" width="188" height="59" rx="29.5" fill="#111"/><rect x="1" y="1" width="186" height="57" rx="28.5" fill="#FAFFFE" stroke="#111" stroke-width="2"/><path d="M36.12 22.7L41 37h2.58l4.88-14.3h-2.52L42.3 34.4h-.02l-3.64-11.7h-2.52zm14.6381 2.36c.62 0 1.2-.4 1.2-1.12 0-.72-.58-1.1-1.2-1.1-.58 0-1.18.38-1.18 1.1 0 .72.6 1.12 1.18 1.12zm-1.04 1.72V37h2.1V26.78h-2.1zm8.755 8.8c-1.86 0-2.96-1.42-2.96-3.14h7.84c0-3.64-1.62-5.94-4.92-5.94-3.08 0-5.02 2.08-5.02 5.4 0 3.2 1.94 5.4 5.12 5.4 2.62 0 4.14-1.48 4.66-3.42h-2.1c-.18.62-.88 1.7-2.62 1.7zm-.04-7.42c1.7 0 2.82 1.14 2.82 2.72h-5.74c0-1.58 1.22-2.72 2.92-2.72zm5.1655-1.38l3.14 10.22h2.1l2.18-7.8h.04l2.2 7.8h2.12l3.12-10.22h-2.22l-2.06 7.76h-.04l-2.1-7.76h-2.06l-2.08 7.76h-.04l-2.08-7.76h-2.22zM83.5872 37h2.38v-5.52h3.5c3.44 0 2.1 4.92 2.76 5.52h2.5v-.14c-.76-.24.44-5.84-2.86-6.46v-.04c1.64-.4 2.66-1.56 2.66-3.56 0-2.6-1.9-4.1-4.84-4.1h-6.1V37zm2.38-12.28h3.22c1.46 0 2.98.3 2.98 2.36 0 2.08-1.52 2.36-2.98 2.36h-3.22v-4.72zM100.68 35.58c-1.8598 0-2.9598-1.42-2.9598-3.14h7.8398c0-3.64-1.62-5.94-4.92-5.94-3.0798 0-5.0198 2.08-5.0198 5.4 0 3.2 1.94 5.4 5.1198 5.4 2.62 0 4.14-1.48 4.66-3.42h-2.1c-.18.62-.88 1.7-2.62 1.7zm-.04-7.42c1.7 0 2.82 1.14 2.82 2.72h-5.7398c0-1.58 1.22-2.72 2.9198-2.72zm10.78 2.66c-1.48-.34-2.62-.42-2.62-1.46 0-.72.68-1.2 1.94-1.2 1.64 0 2.04.82 2.18 1.62h2.04c-.14-1.78-1.46-3.28-4.24-3.28-2.56 0-4.04 1.34-4.04 3.02 0 2.32 2.2 2.64 3.82 3.02 1.5.36 2.72.46 2.72 1.74 0 .64-.62 1.36-2.08 1.36-2.16 0-2.64-.94-2.74-2.04h-2.04c.1 2.16 1.52 3.7 4.82 3.7 2.48 0 4.16-1.22 4.16-3.18 0-2.44-2.04-2.86-3.92-3.3zm12.046-4.04V33c0 1.52-1.04 2.5-2.66 2.5-1.44 0-2.02-.88-2.02-2.26v-6.46h-2.12v7.06c0 2.34 1.5 3.44 3.4 3.44 1.76 0 2.82-.8 3.36-1.6h.04V37h2.1V26.78h-2.1zm15.38-.28c-1.58 0-2.58.78-3.34 1.76h-.04c-.42-1.1-1.28-1.76-2.72-1.76-1.54 0-2.5.8-3.04 1.6h-.04v-1.32h-2.1V37h2.1v-6.22c0-1.52.9-2.5 2.3-2.5 1.46 0 1.74.88 1.74 2.26V37h2.12v-6.22c0-1.52.88-2.5 2.3-2.5 1.44 0 1.72.88 1.72 2.26V37h2.12v-7.06c0-2.2-1.06-3.44-3.12-3.44zm9.588 9.08c-1.86 0-2.96-1.42-2.96-3.14h7.84c0-3.64-1.62-5.94-4.92-5.94-3.08 0-5.02 2.08-5.02 5.4 0 3.2 1.94 5.4 5.12 5.4 2.62 0 4.14-1.48 4.66-3.42h-2.1c-.18.62-.88 1.7-2.62 1.7zm-.04-7.42c1.7 0 2.82 1.14 2.82 2.72h-5.74c0-1.58 1.22-2.72 2.92-2.72z" fill="#111"/></svg>
